<svg xmlns="http://www.w3.org/2000/svg" xmlns:xlink="http://www.w3.org/1999/xlink" viewBox="0,0,256,256" width="128px" height="128px"><g fill="none" fill-rule="nonzero" stroke="none" stroke-width="1" stroke-linecap="butt" stroke-linejoin="miter" stroke-miterlimit="10" stroke-dasharray="" stroke-dashoffset="0" font-family="none" font-weight="none" font-size="none" text-anchor="none" style="mix-blend-mode: normal"><g transform="scale(4,4)"><path d="M56.742,17.149c-1.358,0.465 -2.827,0.727 -4.374,0.902c1.525,-0.759 2.58,-1.877 3.566,-3.246c0.564,-0.783 -0.31,-1.807 -1.179,-1.386c-1.545,0.748 -3.038,1.304 -4.918,1.624c-1.839,-1.653 -4.263,-2.665 -6.932,-2.665c-3.877,0 -7.255,2.123 -9.028,5.264c-0.858,1.509 -1.349,3.255 -1.349,5.113c0,0.639 0.077,1.257 0.188,1.863c-8.339,-0.248 -15.328,-4.554 -19.305,-9.97c-0.442,-0.601 -1.364,-0.473 -1.638,0.221c-0.422,1.067 -0.943,2.225 -0.943,4.112c0,0.113 0,0.217 0.009,0.321c0.038,1.226 0.311,2.396 0.783,3.453c0.887,2.047 2.491,3.717 4.5,4.698c-0.189,0.009 -0.377,0.019 -0.575,0.019c-1.887,0 -2.508,-0.646 -3.531,-0.912c-0.644,-0.168 -1.274,0.37 -1.176,1.028c0.309,2.095 1.4,4.301 2.858,5.705c1.566,1.528 3.66,2.509 5.991,2.651c-1.244,0.613 -2.65,0.962 -4.141,0.962h-0.943c-0.713,0 -1.158,0.755 -0.836,1.391c1.582,3.129 5.246,5.217 9.172,5.204c-3.783,2.385 -8.25,3.783 -13.053,3.783h-0.945c-0.52,-0.001 -0.943,0.422 -0.943,0.942c0,0.432 0.296,0.781 0.692,0.892l-0.002,0.016c0,0 7.104,2.865 15.347,2.865c15.972,0 28.953,-12.802 29.236,-28.707c0.009,-0.179 0.009,-0.358 0.009,-0.538c0,-0.18 0,-0.358 -0.009,-0.538c-0.013,-0.259 -0.045,-0.514 -0.077,-0.769c1.746,-0.556 3.301,-1.47 4.539,-2.76c0.682,-0.71 -0.061,-1.857 -0.993,-1.538z" fill="#e50914"></path><ellipse cx="27" cy="61" rx="19" ry="3" fill="#000000" opacity="0.3"></ellipse><path d="M53.18,25.06c-1.17,15.08 -13.77,26.94 -29.14,26.94c-1.73,0 -3.41,-0.13 -4.98,-0.33c0.16,-2.61 2.33,-4.67 4.98,-4.67c11.1,0 20.76,-7.5 23.49,-18.23c0.64,-2.54 3.11,-4.12 5.65,-3.71z" fill="#000000" opacity="0.15"></path><path d="M47.76,13.59c-0.54,2.18 -2.51,3.79 -4.85,3.79c-1.94,0 -3.73,1.04 -4.68,2.72c-0.47,0.82 -0.7,1.71 -0.7,2.65c0,0.27 0.03,0.57 0.11,0.97c0.27,1.49 -0.15,3.01 -1.13,4.16c-0.95,1.1 -2.34,1.74 -3.79,1.74h-0.15c-6.63,-0.2 -13.11,-2.62 -18.24,-6.81c-2.13,-1.75 -2.45,-4.9 -0.7,-7.04c0.11,-0.14 0.23,-0.27 0.35,-0.39c4.05,5.06 10.78,9 18.74,9.24c-0.11,-0.61 -0.19,-1.23 -0.19,-1.87c0,-1.85 0.49,-3.6 1.35,-5.11c1.77,-3.14 5.15,-5.26 9.03,-5.26c1.75,0 3.41,0.44 4.85,1.21z" fill="#ffffff" opacity="0.3"></path><path d="M37.53,24.25c-0.829,0 -1.5,-0.671 -1.5,-1.5c0,-1.214 0.302,-2.356 0.898,-3.396c1.21,-2.14 3.504,-3.474 5.981,-3.474c0.829,0 1.5,0.671 1.5,1.5c0,0.829 -0.671,1.5 -1.5,1.5c-1.398,0 -2.691,0.75 -3.375,1.958c-0.341,0.596 -0.505,1.218 -0.505,1.912c0.001,0.829 -0.67,1.5 -1.499,1.5z" fill="#ffffff"></path></g></g></svg>